<?xml version="1.0" encoding="UTF-8"?>
<svg id="Layer_2" data-name="Layer 2" xmlns="http://www.w3.org/2000/svg" viewBox="0 0 181 363.44">
  <defs>
    <style>
      .cls-1 {
        fill: none;
        stroke: #000;
        stroke-miterlimit: 10;
      }

      .cls-2 {
        fill: #13543b;
      }

      .cls-2, .cls-3, .cls-4, .cls-5, .cls-6, .cls-7, .cls-8 {
        stroke-width: 0px;
      }

      .cls-4 {
        fill: #f7d394;
      }

      .cls-5 {
        fill: #6b562f;
      }

      .cls-6 {
        fill: #fff;
      }

      .cls-7 {
        fill: #513f10;
      }

      .cls-8 {
        fill: #2a6b82;
      }
    </style>
  </defs>
  <g id="Layer_2-2" data-name="Layer 2">
    <g>
      <circle class="cls-4" cx="85.51" cy="63.04" r="51"/>
      <path class="cls-8" d="m110.72,150.44l-2.34-30.1-.04-.51-.23-.02-.13-.2c-2.53-3.8-6.67-6.14-11.17-6.32-.19-.02-.39-.02-.59-.02h-20.69c-.39,0-.78.02-1.17.05-4.37.36-8.32,2.73-10.72,6.51l-.11.17-.2.05c-.05.01-.09.02-.14.04l-.03.53-1.7,30.44-.03.6v8.08l1.35,1.73-1.35,1.04v82.9c0,7.77,6.32,14.1,14.1,14.1h-.01s20.69-.01,20.69-.01c7.77,0,14.1-6.32,14.1-14.1v-94.62l.46.27-.05-.61Z"/>
      <path class="cls-2" d="m39.45,362.22c-1.05,0-2.09-.15-3.11-.43-2.94-.83-5.39-2.77-6.9-5.46-1.5-2.69-1.87-5.79-1.04-8.74l28.99-102.48c1.39-4.93,5.95-8.37,11.09-8.37,1.05,0,2.09.15,3.11.43,2.94.83,5.39,2.77,6.9,5.46,1.5,2.69,1.87,5.79,1.04,8.73l-28.99,102.48c-1.39,4.93-5.95,8.37-11.09,8.37h0Z"/>
      <path class="cls-2" d="m139.89,361.53c-4.85,0-9.21-3.05-10.85-7.6l-36.11-100.2c-2.15-5.96.96-12.57,6.92-14.72,1.25-.45,2.55-.68,3.87-.68,4.85,0,9.21,3.05,10.85,7.6l36.11,100.2c1.04,2.88.89,6-.43,8.79-1.31,2.79-3.62,4.9-6.5,5.93-1.25.45-2.55.68-3.87.68h0Z"/>
      <path class="cls-3" d="m107.24,97.88c-6.77-11.12-22.34-15.67-33.99-9.86-3.86,1.9-7.25,4.82-9.7,8.39,2.12-3.82,5.45-6.97,9.34-9.08,11.74-6.39,28.36-1.53,34.34,10.54h0Z"/>
      <ellipse class="cls-6" cx="64.94" cy="48.11" rx="6.5" ry="8"/>
      <ellipse class="cls-6" cx="104.94" cy="48.11" rx="6.5" ry="8"/>
      <g>
        <ellipse class="cls-3" cx="65.94" cy="50.11" rx="2.5" ry="4"/>
        <path class="cls-3" d="m65.94,45.61c-1.66,0-3,2.01-3,4.5s1.34,4.5,3,4.5,3-2.01,3-4.5-1.34-4.5-3-4.5Zm0,8c-.95,0-2-1.44-2-3.5s1.05-3.5,2-3.5,2,1.44,2,3.5-1.05,3.5-2,3.5Z"/>
      </g>
      <g>
        <ellipse class="cls-3" cx="105.94" cy="49.11" rx="2.5" ry="4"/>
        <path class="cls-3" d="m105.94,44.61c-1.66,0-3,2.01-3,4.5s1.34,4.5,3,4.5,3-2.01,3-4.5-1.34-4.5-3-4.5Zm0,8c-.95,0-2-1.44-2-3.5s1.05-3.5,2-3.5,2,1.44,2,3.5-1.05,3.5-2,3.5Z"/>
      </g>
      <path class="cls-1" d="m84.55,65.97c3.25,1.19,4.86,4.59,4.08,7.22-.53,1.79-2.15,3.12-4.08,3.56"/>
      <path class="cls-5" d="m10,343.44h32c5.52,0,10,4.48,10,10h0c0,5.52-4.48,10-10,10H10c-5.52,0-10-4.48-10-10h0c0-5.52,4.48-10,10-10Z"/>
      <path class="cls-5" d="m139,343.44h32c5.52,0,10,4.48,10,10h0c0,5.52-4.48,10-10,10h-32c-5.52,0-10-4.48-10-10h0c0-5.52,4.48-10,10-10Z"/>
      <g>
        <rect class="cls-3" x="100.48" y="228.81" width="33" height="113.75" transform="translate(-89.94 56.59) rotate(-19.82)"/>
        <path class="cls-3" d="m86.51,248.35l-.3-.83-.29-.79-.23.81h0s.29.8.29.8l.3.83,3.54,9.84h.53l-3.84-10.66Zm27-22.39h-.01l-1.32.48-1.36.49h-.03s-.48.18-.48.18l-.5.18-20.9,7.54-.79.28-.83.3-5.77,2.08,3.93,10.91.29.79.3.83,3.23,8.99.18.49.18.5.77,2.13.18.5.18.5,29.66,82.32,4.46-1.61.46-.16h.01l.47-.18,20.7-7.46.46-.16h.01l.47-.17,4.95-1.79-38.9-107.96Zm7.53,118.2l-29.21-81.03-.18-.5-.18-.5-.76-2.13-.18-.5-.18-.49-3.84-10.66-.3-.83-.29-.79-3.11-8.64,6.14-2.21.61-.22.6-.22,19.65-7.08.5-.18.51-.19,1.68-.6.41-.15.09.25.5,1.39,37.64,104.43-4.02,1.45-.48.17-.46.17-20.7,7.46-.48.17-.46.17-3.5,1.26Zm-34.53-95.81l-.3-.83-.29-.79-.23.81h0s.29.8.29.8l.3.83,3.54,9.84h.53l-3.84-10.66Z"/>
      </g>
      <g>
        <rect class="cls-3" x="2.7" y="268.26" width="111.67" height="33" transform="translate(-231.41 263.6) rotate(-74.21)"/>
        <path class="cls-3" d="m85.69,247.55l-.24.85-3,10.61h.51l2.78-9.82.24-.85-.29-.79Zm4.03-12.5h-.01l-.8-.22-26.99-7.63-.49-.14-.42-.12-.08-.02-1.69-.48-1.73-.49v.04s-30.67,108.38-30.67,108.38l4.42,1.25.49.14.47.13,21.17,5.99.49.14.48.13,5.2,1.47,22.77-80.49.14-.5.14-.5.6-2.13.15-.5.13-.49,2.55-8.99.24-.85.23-.82,3.65-12.91.07-.24-.51-.15Zm-.73.84l-3.07,10.84-.23.81h0s-.24.86-.24.86l-3,10.61-.14.49-.14.5-.6,2.13-.28,1-22.42,79.26-4.24-1.2-.47-.13-.5-.14-21.17-5.99-.47-.14-.49-.13-3.45-.98,29.42-104.02.5-1.77.2-.71.3.08,2.43.69.5.14.49.14,25.37,7.18.8.23.86.24h.04Zm-3.3,11.66l-.24.85-3,10.61h.51l2.78-9.82.24-.85-.29-.79Z"/>
      </g>
      <g>
        <rect class="cls-3" x="58" y="226.44" width="55" height="36.19"/>
        <path class="cls-3" d="m57.5,225.94v37.19h56v-37.19h-56Zm55,1v35.19h-54v-35.19h54Z"/>
      </g>
      <path class="cls-7" d="m36.44,41.06s36.81-29.08,66.51-9.56c29.7,19.52,28.45-7.57,28.45-7.57,0,0-28.24-32.17-56.32-21.91s-38.64,39.04-38.64,39.04Z"/>
      <g>
        <path class="cls-8" d="m131.05,157.26l-23.03,6.86-7.66-30.73c-1.59-6.4,2.34-12.95,8.74-14.54.97-.24,1.94-.36,2.89-.36,5.38,0,10.3,3.66,11.66,9.1l7.4,29.67Z"/>
        <path class="cls-4" d="m142.77,253.93c-.97.24-1.94.36-2.89.36-5.37,0-10.3-3.66-11.65-9.1l-20.21-81.07,23.03-6.86,20.47,82.13c1.59,6.4-2.34,12.95-8.75,14.54Z"/>
        <line class="cls-1" x1="131.18" y1="157.22" x2="131.05" y2="157.26"/>
        <line class="cls-1" x1="108.02" y1="164.12" x2="107.88" y2="164.16"/>
      </g>
      <g>
        <path class="cls-8" d="m75.06,127.32c0,.96-.12,1.94-.36,2.91l-8.34,33.26-22.8-7.76,7.86-31.34c1.61-6.4,8.16-10.33,14.56-8.72,5.43,1.36,9.08,6.28,9.08,11.65Z"/>
        <path class="cls-4" d="m66.36,163.49l-19.68,78.5c-1.6,6.4-8.15,10.33-14.55,8.72-5.44-1.36-9.09-6.29-9.09-11.66,0-.96.12-1.93.36-2.9l20.16-80.42,22.8,7.76Z"/>
        <line class="cls-1" x1="43.56" y1="155.73" x2="43.38" y2="155.67"/>
      </g>
    </g>
  </g>
</svg>