<?xml version="1.0" encoding="UTF-8"?>
<svg id="Layer_2" data-name="Layer 2" xmlns="http://www.w3.org/2000/svg" viewBox="0 0 101.45 244.4">
  <defs>
    <style>
      .cls-1 {
        stroke: #fff;
      }

      .cls-1, .cls-2 {
        fill: none;
      }

      .cls-1, .cls-2, .cls-3 {
        stroke-miterlimit: 10;
      }

      .cls-4, .cls-3 {
        fill: #010101;
      }

      .cls-4, .cls-5, .cls-6, .cls-7, .cls-8 {
        stroke-width: 0px;
      }

      .cls-2, .cls-3 {
        stroke: #010101;
      }

      .cls-5 {
        fill: #fff;
      }

      .cls-6 {
        fill: #cfa4cc;
      }

      .cls-7 {
        fill: #b4842c;
      }

      .cls-8 {
        fill: #f8d494;
      }
    </style>
  </defs>
  <g id="Layer_2-2" data-name="Layer 2">
    <g>
      <path class="cls-7" d="m81.26,36.26c-.33-9.03-4.52-17.86-11.16-24,.02,1.28.03,2.57.05,3.86-14.09.32-28.18.64-42.28.96.04-1.3.08-2.61.11-3.92-5.52,5.46-9.18,12.79-10.05,20.32-1.84,15.75,8.51,32.19,23.65,36.52l-26.41,1.11-3.29-29.05c-.09-1.49-1.02-22.65,15.84-34.81C33.52,3.06,40.41.68,47.37.13c.15-.02.29-.03.44-.03,8.73-.61,17.54,1.67,24.42,6.85,7.13,5.37,10.34,12.45,11.72,16.23.73,5.6,1.45,11.19,2.17,16.79.6,9.36,1.2,18.72,1.8,28.08l-28.36,1.19c13-4.86,22.21-18.68,21.7-32.98Z"/>
      <path class="cls-7" d="m59.56,69.24l-17.98.76c-15.14-4.33-25.49-20.77-23.65-36.52.87-7.53,4.53-14.86,10.05-20.32-.03,1.31-.07,2.62-.11,3.92,14.1-.32,28.19-.64,42.28-.96-.02-1.29-.03-2.58-.05-3.86,6.64,6.14,10.83,14.97,11.16,24,.51,14.3-8.7,28.12-21.7,32.98Z"/>
      <path class="cls-8" d="m19.11,241.19c-.58,0-1.14-.13-1.67-.38l-2.33-1.1c-2.12-1-3.08-3.67-2.14-5.94l7.37-17.75c.67-1.62,2.17-2.66,3.83-2.66.58,0,1.14.13,1.67.38l2.33,1.1c2.12,1,3.08,3.67,2.14,5.94l-7.37,17.75c-.67,1.62-2.17,2.66-3.83,2.66Z"/>
      <path class="cls-8" d="m82.24,243.77c-1.72,0-3.29-1.15-3.91-2.86l-7.65-21.09c-.84-2.32.24-4.93,2.4-5.82l2.38-.98c.48-.2.98-.3,1.49-.3,1.72,0,3.29,1.15,3.91,2.86l7.65,21.09c.84,2.32-.23,4.93-2.4,5.82l-2.38.98c-.48.2-.98.3-1.49.3Z"/>
      <path class="cls-8" d="m49.08,70.82c-1.27-.02-2.54-.12-3.76-.3-1.34-.2-2.53-.46-3.66-.8-14.77-4.22-25.29-20.47-23.45-36.22.83-7.16,4.27-14.28,9.47-19.65-.03,1.07-.06,2.14-.09,3.2v.3l42.85-.97-.05-3.47c6.33,6.09,10.27,14.77,10.58,23.34.5,14.1-8.55,27.86-21.52,32.7-.92.36-1.9.67-2.91.93-2.32.61-4.72.92-7.13.92h-.33v.02Z"/>
      <circle class="cls-5" cx="65.19" cy="29.64" r="5.33"/>
      <circle class="cls-5" cx="36.55" cy="29.64" r="5.33"/>
      <circle class="cls-3" cx="66.16" cy="31.08" r="2.23"/>
      <circle class="cls-3" cx="38.24" cy="31.08" r="2.23"/>
      <path class="cls-2" d="m48.68,37.13c1.55.74,2.32,2.87,1.95,4.51-.25,1.12-1.02,1.95-1.95,2.22"/>
      <path class="cls-4" d="m61.33,55.99c-6.73-3.87-15.14-4.57-22.3-1.53-1.03.4-2.03.91-3.03,1.43,7.12-5.79,18.25-5.74,25.33.1h0Z"/>
      <path class="cls-6" d="m68.79,88.51l-.62-.21v43.55c0,1.06-.1,2.11-.26,3.12h-33.13c-.16-1-.26-2.05-.26-3.12v-42.82l3.67-15.31c1.26-1.67,2.82-3.08,4.57-4.17,1.69.26,3.42.41,5.18.44,3.54.04,6.97-.42,10.27-1.35,3,1.37,5.54,3.67,7.32,6.57.04,0,.08-.02.12-.02h.01l3.13,13.32Z"/>
      <path class="cls-3" d="m88.36,223.3l-17.9,9.8-17.08-78.98-.07-.31c-.76.21-1.53.31-2.33.31h-.85c-.22,0-.45,0-.67-.04-.73-.06-1.44-.19-2.13-.41l-.1.45-17.37,78.98-17.86-9.95,19.25-87.52.16.1v-.74h37.77v.78l.23-.14,18.96,87.67h-.01Z"/>
      <rect class="cls-7" y="234.27" width="24" height="8.39" rx="2.89" ry="2.89"/>
      <rect class="cls-7" x="77.45" y="236.01" width="24" height="8.39" rx="2.89" ry="2.89"/>
      <line class="cls-1" x1="34.52" y1="89.03" x2="33.13" y2="94.81"/>
      <line class="cls-1" x1="38.82" y1="71.1" x2="38.19" y2="73.72"/>
      <line class="cls-1" x1="70.11" y1="94.11" x2="68.79" y2="88.51"/>
      <polyline class="cls-1" points="65.66 75.19 65.65 75.19 64.69 71.09"/>
      <g>
        <path class="cls-8" d="m78.75,88.74l5.72,42.99c.55,4.12-2.38,7.95-6.5,8.5s-7.95-2.38-8.5-6.5l-5.7-42.84,14.99-2.15Z"/>
        <path class="cls-6" d="m77.04,75.86l1.71,12.88-14.99,2.15-1.73-13.03c-.55-4.13,2.38-7.95,6.5-8.5,2.06-.27,4.05.32,5.59,1.5,1.55,1.18,2.64,2.94,2.92,5.01Z"/>
      </g>
      <g>
        <path class="cls-6" d="m41.47,78.56l-1.54,11.65-14.93-2.55,1.47-11.08c.55-4.13,4.36-7.06,8.5-6.51,2.06.27,3.82,1.36,5,2.9,1.19,1.54,1.78,3.52,1.51,5.6Z"/>
        <path class="cls-8" d="m39.93,90.21l-5.85,44.22c-.55,4.12-4.37,7.06-8.5,6.51s-7.06-4.37-6.51-8.5l5.93-44.79,14.93,2.55Z"/>
      </g>
    </g>
  </g>
</svg>