<svg xmlns="http://www.w3.org/2000/svg" xmlns:xlink="http://www.w3.org/1999/xlink" viewBox="0 0 595.28 841.89">
  <defs>
    <style>
      .cls-1 {
        fill: url(#linear-gradient);
      }

      .cls-1, .cls-2, .cls-3, .cls-4 {
        stroke-width: 0px;
      }

      .cls-2 {
        fill: #e06870;
      }

      .cls-5, .cls-6, .cls-7, .cls-8, .cls-9, .cls-10, .cls-11, .cls-12, .cls-13, .cls-14, .cls-15, .cls-16, .cls-17, .cls-18, .cls-19 {
        stroke-miterlimit: 10;
      }

      .cls-5, .cls-9, .cls-11, .cls-12, .cls-13, .cls-16, .cls-18, .cls-19 {
        stroke: #1d1d1b;
      }

      .cls-5, .cls-3, .cls-15 {
        fill: #f9e199;
      }

      .cls-6 {
        fill: #b5b5b5;
      }

      .cls-6, .cls-7, .cls-8, .cls-9, .cls-10, .cls-11, .cls-13, .cls-15, .cls-16, .cls-18, .cls-19 {
        stroke-width: 2px;
      }

      .cls-6, .cls-7, .cls-8, .cls-10, .cls-15 {
        stroke: #000;
      }

      .cls-7 {
        fill: #e77;
      }

      .cls-8 {
        fill: #646463;
      }

      .cls-9 {
        fill: #a1a7a6;
      }

      .cls-10, .cls-4 {
        fill: #f9e19a;
      }

      .cls-11 {
        fill: #a1a7a7;
      }

      .cls-12, .cls-16 {
        fill: #7f7f80;
      }

      .cls-13 {
        fill: #84b1cc;
      }

      .cls-14 {
        fill: none;
        stroke: #696969;
      }

      .cls-17 {
        fill: #fff;
        stroke: #fdfdfd;
        stroke-width: 4px;
      }

      .cls-18 {
        fill: #91c2e5;
      }

      .cls-19 {
        fill: #92c2e5;
      }
    </style>
    <linearGradient id="linear-gradient" x1="292.79" y1="640.64" x2="292.79" y2="-19.24" gradientUnits="userSpaceOnUse">
      <stop offset="0" stop-color="#3daae1"/>
      <stop offset="1" stop-color="#2581c4" stop-opacity="0"/>
    </linearGradient>
  </defs>
  <g id="L_SKY">
    <rect class="cls-1" x="-22.79" y="-59.11" width="631.15" height="618.89"/>
    <path class="cls-17" d="m635.29,366.91v538.34H-12.32V364.49H63.14c-2.12-.08-3.22-.12-3.22-.12,0,0,197.44-1.77,266.1-72.53,68.65-70.77,314.52,12.56,365.45,55.78,11.07,9.39-12.5,15.49-56.18,19.29Z"/>
  </g>
  <g id="L_GARAGE">
    <path class="cls-16" d="m616.4,487.43v38.51h-172.04c-26.62-15.46-53.24-30.93-79.85-46.39,40.46-.25,80.92-.51,121.38-.76,4.72,2.88,9.45,5.76,14.17,8.64h116.34Z"/>
    <polygon class="cls-18" points="506.4 479.55 343.41 479.55 343.41 417.24 428.38 343.77 507.27 416.15 506.4 479.55"/>
    <polygon class="cls-18" points="343.41 417.24 279.05 417.24 277.98 471.01 331.78 471.27 343.41 478.54 343.41 417.24"/>
    <polygon class="cls-9" points="279.93 370.05 328.28 370.05 357.06 344.84 428.38 343.77 343.41 417.24 279.05 417.24 279.93 370.05"/>
    <polygon class="cls-6" points="435.4 478.79 485.88 478.79 485.34 444.48 477.96 436.23 443.33 436.23 435.83 443.83 435.4 478.79"/>
    <polygon class="cls-6" points="364.65 478.79 417.25 478.79 416.69 444.48 408.99 436.23 372.91 436.23 365.1 443.83 364.65 478.79"/>
  </g>
  <g id="L_HOUSE">
    <polyline class="cls-19" points="277.28 476.17 279.45 354.87 52.11 350.07 49.58 480.5 277.28 479.7 277.28 476.17"/>
    <polygon class="cls-13" points="43.99 277.46 33.35 345.96 52.89 350.08 43.99 277.46"/>
    <polygon class="cls-13" points="33.35 345.96 28.87 476.17 49.58 480.5 52.89 350.08 33.35 345.96"/>
    <polygon class="cls-11" points="280.23 354.43 284.35 354.43 252.44 274.52 43.34 269.09 52.89 350.08 280.23 354.43"/>
    <polygon class="cls-8" points="192.14 473.55 192.14 480.09 150.04 480.09 150.04 458.78 180.17 458.78 180.17 463.21 184.16 463.21 184.16 468.38 188.15 468.38 188.15 473.55 192.14 473.55"/>
    <line class="cls-14" x1="179.17" y1="463.21" x2="151.04" y2="463.21"/>
    <line class="cls-14" x1="183.06" y1="468.41" x2="151.04" y2="468.41"/>
    <line class="cls-14" x1="187.15" y1="473.59" x2="151.05" y2="473.59"/>
    <polygon class="cls-7" points="157.08 418.61 173.36 418.61 173.36 458.78 156.72 458.41 157.08 418.61"/>
    <rect class="cls-2" x="159.3" y="421.44" width="5.1" height="16.72" rx=".11" ry=".11"/>
    <rect class="cls-2" x="165.69" y="421.44" width="5.1" height="16.72" rx=".11" ry=".11"/>
    <rect class="cls-2" x="159.28" y="439.23" width="5.1" height="16.72" rx=".11" ry=".11"/>
    <rect class="cls-2" x="165.67" y="439.23" width="5.1" height="16.72" rx=".11" ry=".11"/>
  </g>
  <g id="L_WINDOWS">
    <polygon class="cls-10" points="300.77 433.01 315.41 433.01 315.16 453.2 299.96 453.09 300.77 433.01"/>
    <polygon class="cls-15" points="421.47 370.05 436.11 370.05 435.85 402.17 420.65 401.99 421.47 370.05"/>
    <polygon class="cls-10" points="247.55 364.49 262.18 364.49 261.93 396.61 246.73 396.42 247.55 364.49"/>
    <polygon class="cls-10" points="199.67 364.05 214.31 364.05 214.06 396.17 198.86 395.99 199.67 364.05"/>
    <polygon class="cls-10" points="158.89 363.12 173.52 363.12 173.27 395.24 158.07 395.06 158.89 363.12"/>
    <polygon class="cls-10" points="117.76 361.6 132.4 361.6 132.14 393.72 116.94 393.54 117.76 361.6"/>
    <polygon class="cls-10" points="68.56 360.41 83.2 360.41 82.95 392.52 67.75 392.34 68.56 360.41"/>
    <polygon class="cls-10" points="246.58 421.42 261.22 421.42 260.97 453.54 245.77 453.36 246.58 421.42"/>
    <polygon class="cls-10" points="199.06 421.25 213.69 421.25 213.44 453.37 198.24 453.19 199.06 421.25"/>
    <polygon class="cls-10" points="117.2 420.12 131.84 420.12 131.58 452.23 116.38 452.05 117.2 420.12"/>
    <polygon class="cls-10" points="67.69 419.14 82.33 419.14 82.08 451.26 66.88 451.08 67.69 419.14"/>
    <polygon class="cls-10" points="39.24 356.56 45.77 358.62 45.52 390.74 38.68 389.1 39.24 356.56"/>
    <polygon class="cls-10" points="37.9 415.98 44.43 418.04 44.17 450.16 37.34 448.51 37.9 415.98"/>
  </g>
  <g id="L_GLOW">
    <polygon class="cls-4" points="301.84 434.3 314.23 434.3 314.02 452.04 301.15 451.94 301.84 434.3"/>
    <polygon class="cls-3" points="422.49 371.23 434.87 371.23 434.66 401.02 421.81 400.85 422.49 371.23"/>
    <polygon class="cls-4" points="248.62 365.62 260.96 365.62 260.74 395.45 247.93 395.28 248.62 365.62"/>
    <polygon class="cls-4" points="200.67 365.15 213.04 365.15 212.83 395.15 199.98 394.98 200.67 365.15"/>
    <polygon class="cls-4" points="160.02 364.26 172.32 364.26 172.1 394 159.34 393.83 160.02 364.26"/>
    <polygon class="cls-4" points="118.91 362.72 131.17 362.72 130.96 392.6 118.23 392.43 118.91 362.72"/>
    <polygon class="cls-4" points="69.57 361.6 82.1 361.6 81.89 391.4 68.87 391.24 69.57 361.6"/>
    <polygon class="cls-4" points="247.75 422.6 259.72 422.6 259.52 452.04 247.08 451.88 247.75 422.6"/>
    <polygon class="cls-4" points="200.18 422.6 212.27 422.6 212.07 452.04 199.51 451.88 200.18 422.6"/>
    <polygon class="cls-4" points="118.32 421.25 130.57 421.25 130.36 451.11 117.64 450.94 118.32 421.25"/>
    <polygon class="cls-4" points="68.86 420.12 80.96 420.12 80.75 450.16 68.19 449.99 68.86 420.12"/>
    <polygon class="cls-4" points="40.23 358.02 44.62 359.91 44.44 389.4 39.85 387.89 40.23 358.02"/>
    <polygon class="cls-4" points="39.16 417.57 43.08 419.45 42.93 448.64 38.83 447.14 39.16 417.57"/>
  </g>
  <g id="L_LAMP">
    <polygon class="cls-12" points="538.85 486.8 538.85 400.08 534.87 400.08 534.87 404.29 520.04 404.29 520.04 408.16 534.87 408.16 534.87 486.8 538.85 486.8"/>
    <rect class="cls-5" x="520.04" y="407.19" width="14.83" height="3.93" transform="translate(1054.91 818.32) rotate(180)"/>
    <rect class="cls-3" x="520.57" y="407.77" width="13.84" height="2.85" transform="translate(1054.97 818.39) rotate(180)"/>
  </g>
</svg>