<?xml version="1.0" encoding="UTF-8"?>
<svg id="Layer_2" data-name="Layer 2" xmlns="http://www.w3.org/2000/svg" viewBox="0 0 181 336.69">
  <defs>
    <style>
      .cls-1, .cls-2 {
        stroke: #000;
        stroke-miterlimit: 10;
      }

      .cls-1, .cls-2, .cls-3 {
        fill: none;
      }

      .cls-4, .cls-3, .cls-5, .cls-6, .cls-7, .cls-8, .cls-9 {
        stroke-width: 0px;
      }

      .cls-2 {
        stroke-width: .75px;
      }

      .cls-5 {
        fill: #f7d394;
      }

      .cls-6 {
        fill: #6b562f;
      }

      .cls-7 {
        fill: #fff;
      }

      .cls-8 {
        fill: #dda036;
      }

      .cls-9 {
        fill: #bf4f87;
      }
    </style>
  </defs>
  <g id="Layer_2-2" data-name="Layer 2">
    <g>
      <path class="cls-8" d="m32.68,108.46l105.16,2.39s10.01-61.1-1.79-86.64S81.08.01,81.08.01c0,0-41.98,9.93-50.19,36.41-8.21,26.48,1.79,72.04,1.79,72.04Z"/>
      <path class="cls-5" d="m85.51,104.19c-19.8-.38-32-16.26-36-21.47-3.19-4.16-10.67-13.89-10.65-26.99,0-10.45,4.73-22,12.63-30.88,8.98-10.09,21.06-15.66,34.01-15.67,13,0,25.04,5.61,33.95,15.8,7.73,8.84,12.52,20.44,12.81,31.04.26,9.3-2.93,18.47-9.46,27.26-10.03,13.49-23.01,20.92-36.56,20.92h-.73,0Z"/>
      <path class="cls-9" d="m109.82,138.34l-.46-.25v88.23c0,7.23-6.33,13.11-14.1,13.11h-20.69v.02c-7.78,0-14.1-5.88-14.1-13.11v-77.25l1.37-.99-1.37-1.65v-7.54l-.16.09.06-.61,2.96-29.13.1-.95c2.66-3.22,6.74-5.11,11.14-5.11h20.69c4.73,0,9.13,2.21,11.77,5.9l.13.19.23.02.05.52,2.33,27.93.05.58Z"/>
      <g>
        <path class="cls-8" d="m39.44,335.52c-1.05,0-2.1-.14-3.12-.4-3.03-.8-5.6-2.76-7.06-5.37-1.35-2.42-1.66-5.2-.87-7.81l28.99-95.52c1.39-4.58,5.95-7.79,11.09-7.79,1.05,0,2.1.14,3.12.4,3.03.8,5.6,2.75,7.06,5.37,1.35,2.42,1.66,5.2.87,7.81l-28.99,95.53c-1.39,4.58-5.95,7.79-11.09,7.79h0Z"/>
        <path class="cls-3" d="m68.47,218.13c-5.23,0-10.08,3.23-11.57,8.14l-28.99,95.52c-1.8,5.92,1.93,12.13,8.28,13.81h0c1.08.29,2.17.42,3.25.42,5.23,0,10.08-3.23,11.57-8.14l28.99-95.52c1.8-5.92-1.93-12.13-8.28-13.81h0c-1.08-.29-2.17-.42-3.25-.42h0Z"/>
      </g>
      <path class="cls-8" d="m139.89,334.88c-4.86,0-9.22-2.84-10.85-7.07l-36.11-93.39c-.99-2.56-.89-5.36.29-7.87,1.26-2.69,3.68-4.8,6.62-5.79,1.25-.42,2.56-.63,3.88-.63,4.86,0,9.22,2.84,10.85,7.07l36.11,93.39c.99,2.56.89,5.36-.29,7.87-1.26,2.69-3.68,4.8-6.62,5.79-1.25.42-2.56.63-3.88.63h0Z"/>
      <path class="cls-4" d="m107.5,88.29c-7.56-10.31-22.92-13.45-34.23-7.82-3.78,1.9-7.11,4.74-9.48,8.27,2.04-3.78,5.33-6.87,9.13-8.96,11.37-6.18,27.74-2.8,34.59,8.5h0Z"/>
      <ellipse class="cls-7" cx="64.94" cy="42.76" rx="6.5" ry="7.46"/>
      <ellipse class="cls-7" cx="104.94" cy="42.76" rx="6.5" ry="7.46"/>
      <g>
        <ellipse class="cls-4" cx="65.94" cy="44.63" rx="2.5" ry="3.69"/>
        <path class="cls-4" d="m65.94,41.43c1.08,0,2,1.46,2,3.19s-.92,3.19-2,3.19-2-1.46-2-3.19.92-3.19,2-3.19h0Zm0-1c-1.66,0-3,1.88-3,4.19s1.34,4.19,3,4.19,3-1.88,3-4.19-1.34-4.19-3-4.19h0Z"/>
      </g>
      <g>
        <ellipse class="cls-4" cx="105.94" cy="43.7" rx="2.5" ry="3.69"/>
        <path class="cls-4" d="m105.94,40.5c1.08,0,2,1.46,2,3.19s-.92,3.19-2,3.19-2-1.46-2-3.19.92-3.19,2-3.19h0Zm0-1c-1.66,0-3,1.88-3,4.19s1.34,4.19,3,4.19,3-1.88,3-4.19-1.34-4.19-3-4.19h0Z"/>
      </g>
      <path class="cls-1" d="m84.55,59.41c3.25,1.11,4.86,4.28,4.08,6.73-.53,1.67-2.15,2.91-4.08,3.32"/>
      <path class="cls-6" d="m9.32,318.05h33.36c5.15,0,9.32,4.17,9.32,9.32h0c0,5.15-4.17,9.32-9.32,9.32H9.32c-5.15,0-9.32-4.17-9.32-9.32h0c0-5.15,4.17-9.32,9.32-9.32Z"/>
      <path class="cls-6" d="m138.32,318.05h33.36c5.15,0,9.32,4.17,9.32,9.32h0c0,5.15-4.17,9.32-9.32,9.32h-33.36c-5.15,0-9.32-4.17-9.32-9.32h0c0-5.15,4.17-9.32,9.32-9.32Z"/>
      <g>
        <polygon class="cls-4" points="82.17 219.59 113.21 209.17 151.75 308.86 120.71 319.29 82.17 219.59"/>
        <path class="cls-4" d="m112.91,209.79l38.18,98.76-30.09,10.11-38.18-98.76,30.09-10.11h0Zm.59-1.25l-31.99,10.74,38.9,100.63,31.99-10.74-38.9-100.63h0Z"/>
      </g>
      <g>
        <polygon class="cls-4" points="27.46 309.23 57.84 209.13 89.59 217.5 59.21 317.61 27.46 309.23"/>
        <path class="cls-4" d="m58.18,209.74l30.78,8.12-30.09,99.14-30.78-8.12,30.09-99.14h0Zm-.68-1.21l-30.67,101.06,32.72,8.63,30.67-101.06-32.72-8.63h0Z"/>
      </g>
      <g>
        <rect class="cls-4" x="58" y="209.02" width="55" height="33.67"/>
        <path class="cls-4" d="m112.5,209.52v32.67h-54v-32.67h54Zm1-1h-56v34.67h56v-34.67h0Z"/>
      </g>
      <line class="cls-2" x1="58.91" y1="39.71" x2="55.19" y2="38.89"/>
      <line class="cls-2" x1="113.7" y1="36.65" x2="110.48" y2="38.77"/>
      <line class="cls-2" x1="112.25" y1="35.2" x2="109.36" y2="37.38"/>
      <line class="cls-2" x1="110.17" y1="33.46" x2="107.7" y2="36.04"/>
      <line class="cls-2" x1="61.2" y1="36.73" x2="58.89" y2="34.02"/>
      <line class="cls-2" x1="59.92" y1="38.1" x2="56.95" y2="36.02"/>
      <g>
        <path class="cls-9" d="m124.85,136.69l-17.83,5.05-5.5-20.87c-.94-3.57,1.29-7.22,4.94-8.14l4.69-1.16c3.65-.92,7.41,1.25,8.35,4.81l5.35,20.31Z"/>
        <path class="cls-5" d="m134.33,199.54l-4.69,1.16c-3.65.92-7.41-1.25-8.35-4.81l-14.27-54.16,17.83-5.05,14.42,54.73c.94,3.55-1.29,7.21-4.94,8.13Z"/>
      </g>
      <g>
        <path class="cls-9" d="m70.66,121.95l-9.19,24.83-17-4.83,9.68-26.17c1.3-3.5,5.2-5.3,8.68-4l3.85,1.44c3.48,1.31,5.26,5.22,3.97,8.72Z"/>
        <path class="cls-5" d="m61.47,146.78l-17.73,47.92c-1.29,3.5-5.19,5.29-8.67,4l-3.85-1.44c-3.48-1.31-5.26-5.23-3.97-8.73l17.22-46.57,17,4.83Z"/>
      </g>
      <path class="cls-8" d="m44.15,29.43s37.52-23.45,84.88,0l-19.21-21.81h-33.97l-26.59,12.55-5.11,9.26Z"/>
    </g>
  </g>
</svg>