<?xml version="1.0" encoding="utf-8"?>
<!-- Generator: Adobe Illustrator 27.8.1, SVG Export Plug-In . SVG Version: 6.00 Build 0)  -->
<svg version="1.1" id="Layer_2_00000071527826337874045090000010607210074462483854_"
	 xmlns="http://www.w3.org/2000/svg" xmlns:xlink="http://www.w3.org/1999/xlink" x="0px" y="0px" viewBox="0 0 18.6 19"
	 style="enable-background:new 0 0 18.6 19;" xml:space="preserve">
<style type="text/css">
	.st0{fill:none;stroke:#2675AA;stroke-miterlimit:10;}
</style>
<g id="Layer_1-2">
	<g>
		<line class="st0" x1="9.4" y1="0" x2="9.4" y2="19"/>
		<line class="st0" x1="17.4" y1="4.3" x2="1.5" y2="14.6"/>
		<line class="st0" x1="17.4" y1="14.6" x2="1.4" y2="4.4"/>
		<line class="st0" x1="6.6" y1="0.8" x2="9.4" y2="3.7"/>
		<line class="st0" x1="9.4" y1="15.6" x2="12.5" y2="18.3"/>
		<line class="st0" x1="9.4" y1="15.5" x2="6.6" y2="18.4"/>
		<line class="st0" x1="4.5" y1="12.7" x2="3.7" y2="16.7"/>
		<line class="st0" x1="3.3" y1="2.1" x2="4.4" y2="6.1"/>
		<line class="st0" x1="0.1" y1="6.9" x2="4.1" y2="6.2"/>
		<line class="st0" x1="0.5" y1="11.3" x2="4.3" y2="12.7"/>
		<line class="st0" x1="18.4" y1="11.8" x2="14.5" y2="12.8"/>
		<line class="st0" x1="14.7" y1="12.7" x2="15.1" y2="16.7"/>
		<line class="st0" x1="14.5" y1="5.9" x2="18.4" y2="7.3"/>
		<line class="st0" x1="15.5" y1="2.1" x2="14.7" y2="6.1"/>
		<line class="st0" x1="12.5" y1="0.9" x2="9.4" y2="3.5"/>
	</g>
</g>
</svg>
