<?xml version="1.0" encoding="UTF-8"?>
<svg id="Layer_2" data-name="Layer 2" xmlns="http://www.w3.org/2000/svg" viewBox="0 0 101.45 220.69">
  <defs>
    <style>
      .cls-1, .cls-2 {
        stroke: #000;
        stroke-miterlimit: 10;
      }

      .cls-1, .cls-3 {
        fill: none;
      }

      .cls-4, .cls-3, .cls-5, .cls-6, .cls-7, .cls-8, .cls-9 {
        stroke-width: 0px;
      }

      .cls-5 {
        fill: #5b400b;
      }

      .cls-6 {
        fill: #f7d394;
      }

      .cls-7 {
        fill: #fff;
      }

      .cls-8 {
        fill: #4a82c6;
      }

      .cls-9 {
        fill: #2fef25;
      }
    </style>
  </defs>
  <g id="Layer_2-2" data-name="Layer 2">
    <g>
      <g>
        <path class="cls-6" d="m19.11,217.48c-.58,0-1.14-.13-1.67-.38l-2.33-1.1c-2.12-1-3.08-3.67-2.14-5.94l7.37-17.75c.67-1.62,2.17-2.66,3.83-2.66.58,0,1.14.13,1.67.38l2.33,1.1c2.12,1,3.08,3.67,2.14,5.94l-7.37,17.75c-.67,1.62-2.17,2.66-3.83,2.66Z"/>
        <path class="cls-3" d="m24.18,190.15h0c.5,0,.99.11,1.45.33l2.33,1.1c1.88.89,2.73,3.26,1.89,5.3l-7.37,17.75c-.59,1.43-1.92,2.35-3.37,2.35-.5,0-.99-.11-1.45-.33l-2.33-1.1c-1.88-.89-2.73-3.26-1.89-5.3l7.37-17.75c.59-1.43,1.92-2.35,3.37-2.35h0Z"/>
      </g>
      <g>
        <path class="cls-6" d="m82.24,220.06c-1.72,0-3.29-1.15-3.91-2.86l-7.65-21.09c-.84-2.32.24-4.93,2.4-5.82l2.38-.98c.48-.2.98-.3,1.49-.3,1.72,0,3.29,1.15,3.91,2.86l7.65,21.09c.84,2.32-.24,4.93-2.4,5.82l-2.38.98c-.48.2-.98.3-1.49.3Z"/>
        <path class="cls-3" d="m76.94,189.51h0c1.51,0,2.89,1.02,3.44,2.53l7.65,21.09c.75,2.07-.2,4.4-2.12,5.19l-2.38.98c-.42.17-.85.26-1.29.26-1.51,0-2.89-1.02-3.44-2.53l-7.65-21.09c-.75-2.07.2-4.4,2.12-5.19l2.38-.98c.42-.17.85-.26,1.3-.26h-.01Z"/>
      </g>
      <g>
        <path class="cls-6" d="m49.09,71.38c-1.27-.02-2.52-.12-3.73-.29-16.35-2.41-28.94-19.59-26.92-36.78,1.62-13.97,13.97-29.04,31.1-29.04h.26c17.85.15,30.43,16.56,30.97,31.78.54,15.08-10.12,29.75-24.26,33.42-2.3.61-4.68.92-7.08.92h-.34Z"/>
        <path class="cls-3" d="m49.53,5.77h.25c8,.07,15.59,3.52,21.38,9.73,5.5,5.9,8.82,13.76,9.1,21.57.53,14.85-9.96,29.31-23.9,32.92-2.25.6-4.59.9-6.95.9h-.32c-1.25-.02-2.48-.12-3.67-.29-16.1-2.37-28.48-19.3-26.5-36.23.85-7.28,4.44-14.5,9.86-19.82,5.76-5.66,13.13-8.77,20.74-8.77h.01Z"/>
      </g>
      <circle class="cls-7" cx="65.19" cy="30.42" r="5.33"/>
      <circle class="cls-7" cx="36.56" cy="30.42" r="5.33"/>
      <circle class="cls-2" cx="66.17" cy="31.86" r="2.23"/>
      <circle class="cls-2" cx="38.25" cy="31.86" r="2.23"/>
      <path class="cls-1" d="m48.68,37.9c1.55.74,2.32,2.87,1.95,4.51-.25,1.12-1.02,1.95-1.95,2.22"/>
      <path class="cls-4" d="m61.27,57.09c-6.63-4.03-15.02-4.94-22.26-2.08-1.04.37-2.05.86-3.06,1.36,7.26-5.61,18.39-5.28,25.32.73h0Z"/>
      <path class="cls-9" d="m67.62,89.37v43.45c0,1.05-.1,2.1-.26,3.09v.02h-33.13v-.02c-.16-.99-.26-2.04-.26-3.09v-42.72l2.63-13.74c1.36-2.22,3.19-4.1,5.33-5.48.09-.06.18-.12.28-.18.92.14,1.85.25,2.79.33h.03c.78.06,1.57.1,2.36.11,3.54.04,6.97-.42,10.27-1.35.14.07.29.13.43.21.21.1.42.21.62.32,2.54,1.39,4.7,3.47,6.27,6.02l2.64,13.03Z"/>
      <path class="cls-2" d="m88.36,202.05l-17.9,7.34-17.08-59.15-.07-.23c-.76.16-1.53.23-2.33.23h-.85c-.22,0-.45,0-.67-.03-.73-.04-1.44-.15-2.13-.31l-.1.33-17.37,59.15-17.86-7.45,19.25-65.54.16.07v-.55h37.77v.58l.23-.1,18.96,65.65h-.01Z"/>
      <path class="cls-1" d="m50.31,150.24h-3.24l.11-.33c.78.16,1.57.26,2.38.31.25.03.5.03.75.03h0Z"/>
      <path class="cls-1" d="m53.95,150.24h-2.68c.89,0,1.76-.07,2.6-.23l.08.23Z"/>
      <rect class="cls-8" y="210.56" width="24" height="8.39" rx="2.89" ry="2.89"/>
      <rect class="cls-8" x="77.45" y="212.3" width="24" height="8.39" rx="2.89" ry="2.89"/>
      <path class="cls-5" d="m18.63,30.42l.99-15.04,4.68,1.05,2.13-11.65,5.24,4.18,3.46-7.17,3.62,2.99,3.26-4.18,4.11,2.39,1.99-2.99,5.52,4.03,2.27-4.03,5.72,7.32,2.79-3.88,5.24,10.16,1.42-4.78,2.83,8.81c-2.36-1.53-13.9-8.66-29.08-5.68-16.76,3.3-24.92,16.36-26.19,18.48h0Z"/>
      <g>
        <path class="cls-6" d="m78.45,135.9c-3.51.77-6.98-1.5-7.7-5.01l-5.17-25.34,12.77-2.76,5.17,25.33c.35,1.76-.04,3.51-.97,4.93-.92,1.42-2.37,2.47-4.11,2.85Z"/>
        <path class="cls-9" d="m78.35,102.79l-12.77,2.76-5.12-25.13c-.36-1.76.04-3.51.96-4.92.92-1.42,2.36-2.48,4.12-2.86,3.51-.76,6.96,1.5,7.69,5.01l5.12,25.13Z"/>
      </g>
      <g>
        <path class="cls-6" d="m35.32,105.6l-4.65,26.37c-.33,1.83-1.28,3.47-2.57,4.62-1.29,1.17-2.9,1.86-4.52,1.8-3.26-.12-5.4-3.22-4.75-6.86l4.51-25.59,11.99-.33Z"/>
        <path class="cls-9" d="m39.9,79.61l-4.58,25.99-11.99.33.08-.5,4.63-26.3c.32-1.82,1.28-3.45,2.57-4.62s2.9-1.85,4.53-1.79c3.25.14,5.39,3.23,4.75,6.88Z"/>
      </g>
    </g>
  </g>
</svg>